<?xml version="1.0" encoding="utf-8"?>
<!-- Generator: Adobe Illustrator 16.0.0, SVG Export Plug-In . SVG Version: 6.00 Build 0)  -->
<!DOCTYPE svg PUBLIC "-//W3C//DTD SVG 1.1//EN" "http://www.w3.org/Graphics/SVG/1.1/DTD/svg11.dtd">
<svg version="1.1" id="Layer_1" xmlns="http://www.w3.org/2000/svg" xmlns:xlink="http://www.w3.org/1999/xlink" x="0px" y="0px"
	 width="1000px" height="400px" viewBox="0 0 1000 400" enable-background="new 0 0 1000 400" xml:space="preserve">
<g id="bg">
	
		<linearGradient id="SVGID_1_" gradientUnits="userSpaceOnUse" x1="711.6475" y1="-166.7461" x2="288.4423" y2="566.2666" gradientTransform="matrix(1 0 0 -1 -0.0449 399.7598)">
		<stop  offset="0" style="stop-color:#E6E6E6"/>
		<stop  offset="0.3752" style="stop-color:#E3E3E3"/>
		<stop  offset="0.5977" style="stop-color:#DBDBDB"/>
		<stop  offset="0.7803" style="stop-color:#CDCDCD"/>
		<stop  offset="0.9404" style="stop-color:#B9B9B9"/>
		<stop  offset="0.9785" style="stop-color:#B3B3B3"/>
	</linearGradient>
	<rect fill="url(#SVGID_1_)" width="1000" height="400"/>
</g>
<g id="Layer_2">
</g>
<g>
	<g>
		<path fill="#808080" d="M576.563,113.778c-1.839,0-3.33,1.49-3.33,3.33v122.88H422.927V89.681h153.637
			c1.839,0,3.33-1.49,3.33-3.329s-1.491-3.33-3.33-3.33H419.597c-1.839,0-3.33,1.491-3.33,3.33v156.967
			c0,1.838,1.491,3.33,3.33,3.33h156.967c1.839,0,3.33-1.492,3.33-3.33v-126.21C579.894,115.269,578.402,113.778,576.563,113.778z"
			/>
		<path fill="#808080" d="M437.977,101.401c-1.838,0-3.329,1.491-3.329,3.33v96.485c0,1.838,1.491,3.328,3.329,3.328h120.206
			c1.839,0,3.33-1.49,3.33-3.328v-96.485c0-1.839-1.491-3.33-3.33-3.33H437.977z M441.307,108.062h113.547v84.903l-34.801-34.801
			c-1.301-1.301-3.41-1.301-4.708,0l-9.613,9.612l-17.157-17.157c-1.301-1.301-3.409-1.301-4.709,0l-33.02,33.021
			c-1.301,1.299-1.301,3.408,0,4.709c1.3,1.299,3.409,1.299,4.708,0l30.666-30.666l17.157,17.156c1.3,1.301,3.409,1.301,4.709,0
			l9.612-9.611l32.659,32.659H441.307V108.062z"/>
	</g>
	<g>
		<path fill="#666666" d="M376.271,306.754v1.775h-17.52v-1.775h7.8v-27.553c0-0.543,0.024-1.119,0.072-1.727l-7.488,6.646
			c-0.224,0.193-0.448,0.266-0.672,0.217c-0.225-0.049-0.4-0.145-0.528-0.289l-0.696-0.959l9.816-8.664h1.8v32.328H376.271z"/>
		<path fill="#666666" d="M406.27,291.537c0,2.977-0.32,5.553-0.96,7.729c-0.64,2.176-1.512,3.977-2.616,5.4
			s-2.396,2.484-3.876,3.18c-1.48,0.695-3.06,1.045-4.74,1.045s-3.256-0.35-4.728-1.045c-1.472-0.695-2.76-1.756-3.864-3.18
			s-1.972-3.225-2.604-5.4c-0.632-2.176-0.948-4.752-0.948-7.729c0-2.975,0.316-5.551,0.948-7.727c0.632-2.176,1.5-3.977,2.604-5.4
			s2.392-2.484,3.864-3.18c1.472-0.697,3.048-1.045,4.728-1.045s3.26,0.348,4.74,1.045c1.479,0.695,2.772,1.756,3.876,3.18
			s1.976,3.225,2.616,5.4C405.949,285.986,406.27,288.563,406.27,291.537z M403.87,291.537c0-2.752-0.264-5.104-0.792-7.055
			c-0.528-1.953-1.236-3.549-2.124-4.789s-1.928-2.148-3.12-2.723c-1.192-0.576-2.444-0.865-3.756-0.865
			c-1.312,0-2.56,0.289-3.744,0.865c-1.184,0.574-2.224,1.482-3.12,2.723c-0.896,1.24-1.608,2.836-2.136,4.789
			c-0.528,1.951-0.792,4.303-0.792,7.055c0,2.77,0.264,5.125,0.792,7.068s1.24,3.537,2.136,4.775c0.896,1.24,1.936,2.145,3.12,2.713
			s2.432,0.852,3.744,0.852c1.312,0,2.564-0.283,3.756-0.852s2.232-1.473,3.12-2.713c0.888-1.238,1.596-2.832,2.124-4.775
			S403.87,294.307,403.87,291.537z"/>
		<path fill="#666666" d="M434.109,291.537c0,2.977-0.32,5.553-0.96,7.729c-0.64,2.176-1.512,3.977-2.616,5.4
			s-2.396,2.484-3.876,3.18c-1.48,0.695-3.06,1.045-4.74,1.045s-3.256-0.35-4.728-1.045c-1.472-0.695-2.76-1.756-3.864-3.18
			s-1.972-3.225-2.604-5.4c-0.632-2.176-0.948-4.752-0.948-7.729c0-2.975,0.316-5.551,0.948-7.727c0.632-2.176,1.5-3.977,2.604-5.4
			s2.392-2.484,3.864-3.18c1.472-0.697,3.048-1.045,4.728-1.045s3.26,0.348,4.74,1.045c1.479,0.695,2.772,1.756,3.876,3.18
			s1.976,3.225,2.616,5.4C433.789,285.986,434.109,288.563,434.109,291.537z M431.709,291.537c0-2.752-0.264-5.104-0.792-7.055
			c-0.528-1.953-1.236-3.549-2.124-4.789s-1.928-2.148-3.12-2.723c-1.192-0.576-2.444-0.865-3.756-0.865
			c-1.312,0-2.56,0.289-3.744,0.865c-1.184,0.574-2.224,1.482-3.12,2.723c-0.896,1.24-1.608,2.836-2.136,4.789
			c-0.528,1.951-0.792,4.303-0.792,7.055c0,2.77,0.264,5.125,0.792,7.068s1.24,3.537,2.136,4.775c0.896,1.24,1.936,2.145,3.12,2.713
			s2.432,0.852,3.744,0.852c1.312,0,2.564-0.283,3.756-0.852s2.232-1.473,3.12-2.713c0.888-1.238,1.596-2.832,2.124-4.775
			S431.709,294.307,431.709,291.537z"/>
		<path fill="#666666" d="M461.948,291.537c0,2.977-0.32,5.553-0.96,7.729c-0.64,2.176-1.512,3.977-2.616,5.4
			s-2.396,2.484-3.876,3.18c-1.48,0.695-3.06,1.045-4.74,1.045s-3.256-0.35-4.728-1.045c-1.472-0.695-2.76-1.756-3.864-3.18
			s-1.972-3.225-2.604-5.4c-0.632-2.176-0.948-4.752-0.948-7.729c0-2.975,0.316-5.551,0.948-7.727c0.632-2.176,1.5-3.977,2.604-5.4
			s2.392-2.484,3.864-3.18c1.472-0.697,3.048-1.045,4.728-1.045s3.26,0.348,4.74,1.045c1.479,0.695,2.772,1.756,3.876,3.18
			s1.976,3.225,2.616,5.4C461.628,285.986,461.948,288.563,461.948,291.537z M459.548,291.537c0-2.752-0.264-5.104-0.792-7.055
			c-0.528-1.953-1.236-3.549-2.124-4.789s-1.928-2.148-3.12-2.723c-1.192-0.576-2.444-0.865-3.756-0.865
			c-1.312,0-2.56,0.289-3.744,0.865c-1.184,0.574-2.224,1.482-3.12,2.723c-0.896,1.24-1.608,2.836-2.136,4.789
			c-0.528,1.951-0.792,4.303-0.792,7.055c0,2.77,0.264,5.125,0.792,7.068s1.24,3.537,2.136,4.775c0.896,1.24,1.936,2.145,3.12,2.713
			s2.432,0.852,3.744,0.852c1.312,0,2.564-0.283,3.756-0.852s2.232-1.473,3.12-2.713c0.888-1.238,1.596-2.832,2.124-4.775
			S459.548,294.307,459.548,291.537z"/>
		<path fill="#666666" d="M498.188,308.529h-2.184c-0.224,0-0.4-0.068-0.528-0.203c-0.128-0.137-0.232-0.268-0.312-0.396
			l-7.248-10.584c-0.064,0.287-0.184,0.568-0.36,0.84l-6.912,9.744c-0.112,0.145-0.228,0.279-0.348,0.408s-0.276,0.191-0.468,0.191
			h-2.064l8.688-12.215L478.1,284.65h2.184c0.224,0,0.392,0.047,0.504,0.143c0.112,0.098,0.208,0.209,0.288,0.336l7.008,10.105
			c0.032-0.129,0.084-0.264,0.156-0.408c0.072-0.145,0.148-0.289,0.228-0.432l6.552-9.24c0.096-0.145,0.2-0.264,0.312-0.361
			c0.112-0.096,0.256-0.143,0.432-0.143h2.088l-8.328,11.52L498.188,308.529z"/>
		<path fill="#666666" d="M538.58,296.961v1.248c0,0.178-0.053,0.316-0.156,0.42c-0.104,0.105-0.269,0.156-0.492,0.156h-5.568v9.744
			h-2.016v-9.744h-16.057c-0.24,0-0.424-0.051-0.552-0.156c-0.128-0.104-0.216-0.242-0.264-0.42l-0.216-1.127l17.063-22.561h2.04
			v22.439H538.58z M530.348,296.961v-17.783c0-0.271,0.012-0.568,0.035-0.889c0.024-0.318,0.053-0.646,0.084-0.982l-14.688,19.654
			H530.348z"/>
		<path fill="#666666" d="M566.203,291.537c0,2.977-0.32,5.553-0.961,7.729c-0.64,2.176-1.512,3.977-2.615,5.4
			s-2.396,2.484-3.876,3.18c-1.48,0.695-3.06,1.045-4.74,1.045s-3.257-0.35-4.728-1.045c-1.473-0.695-2.76-1.756-3.864-3.18
			s-1.972-3.225-2.604-5.4c-0.632-2.176-0.947-4.752-0.947-7.729c0-2.975,0.315-5.551,0.947-7.727c0.633-2.176,1.5-3.977,2.604-5.4
			s2.392-2.484,3.864-3.18c1.471-0.697,3.047-1.045,4.728-1.045s3.26,0.348,4.74,1.045c1.479,0.695,2.772,1.756,3.876,3.18
			s1.976,3.225,2.615,5.4C565.883,285.986,566.203,288.563,566.203,291.537z M563.803,291.537c0-2.752-0.264-5.104-0.792-7.055
			c-0.528-1.953-1.235-3.549-2.124-4.789s-1.928-2.148-3.12-2.723c-1.192-0.576-2.444-0.865-3.756-0.865s-2.56,0.289-3.744,0.865
			c-1.185,0.574-2.224,1.482-3.12,2.723s-1.607,2.836-2.136,4.789c-0.528,1.951-0.792,4.303-0.792,7.055
			c0,2.77,0.264,5.125,0.792,7.068s1.239,3.537,2.136,4.775c0.896,1.24,1.936,2.145,3.12,2.713s2.433,0.852,3.744,0.852
			s2.563-0.283,3.756-0.852s2.231-1.473,3.12-2.713c0.889-1.238,1.596-2.832,2.124-4.775S563.803,294.307,563.803,291.537z"/>
		<path fill="#666666" d="M594.042,291.537c0,2.977-0.32,5.553-0.96,7.729c-0.641,2.176-1.512,3.977-2.615,5.4
			c-1.104,1.424-2.396,2.484-3.877,3.18s-3.06,1.045-4.74,1.045c-1.68,0-3.256-0.35-4.728-1.045s-2.76-1.756-3.864-3.18
			c-1.104-1.424-1.972-3.225-2.604-5.4c-0.633-2.176-0.948-4.752-0.948-7.729c0-2.975,0.315-5.551,0.948-7.727
			c0.632-2.176,1.5-3.977,2.604-5.4c1.104-1.424,2.393-2.484,3.864-3.18c1.472-0.697,3.048-1.045,4.728-1.045
			c1.681,0,3.26,0.348,4.74,1.045c1.48,0.695,2.772,1.756,3.877,3.18c1.104,1.424,1.975,3.225,2.615,5.4
			C593.722,285.986,594.042,288.563,594.042,291.537z M591.643,291.537c0-2.752-0.265-5.104-0.793-7.055
			c-0.527-1.953-1.235-3.549-2.123-4.789c-0.889-1.24-1.929-2.148-3.121-2.723c-1.191-0.576-2.443-0.865-3.756-0.865
			c-1.312,0-2.56,0.289-3.744,0.865c-1.184,0.574-2.224,1.482-3.119,2.723c-0.896,1.24-1.608,2.836-2.137,4.789
			c-0.527,1.951-0.791,4.303-0.791,7.055c0,2.77,0.264,5.125,0.791,7.068c0.528,1.943,1.24,3.537,2.137,4.775
			c0.896,1.24,1.936,2.145,3.119,2.713c1.185,0.568,2.433,0.852,3.744,0.852c1.313,0,2.564-0.283,3.756-0.852
			c1.192-0.568,2.232-1.473,3.121-2.713c0.888-1.238,1.596-2.832,2.123-4.775C591.378,296.662,591.643,294.307,591.643,291.537z"/>
		<path fill="#666666" d="M601.938,288.945c1.057-1.439,2.292-2.584,3.708-3.432s3.004-1.271,4.765-1.271
			c2.928,0,5.211,1.016,6.852,3.047c1.64,2.033,2.46,5.08,2.46,9.145c0,1.744-0.228,3.373-0.685,4.885
			c-0.455,1.512-1.127,2.824-2.016,3.936s-1.977,1.988-3.264,2.627c-1.289,0.641-2.772,0.961-4.452,0.961
			c-1.616,0-3.017-0.297-4.2-0.889s-2.208-1.463-3.072-2.615v11.641h-2.304V284.65h1.272c0.399,0,0.631,0.199,0.695,0.6
			L601.938,288.945z M602.033,303.322c0.465,0.688,0.948,1.268,1.452,1.74c0.504,0.471,1.036,0.855,1.597,1.15
			c0.559,0.297,1.155,0.51,1.787,0.637c0.633,0.129,1.301,0.191,2.004,0.191c1.408,0,2.641-0.256,3.696-0.768
			s1.94-1.236,2.652-2.172s1.247-2.055,1.608-3.359c0.359-1.305,0.539-2.74,0.539-4.309c0-3.553-0.656-6.164-1.968-7.836
			s-3.192-2.508-5.64-2.508c-1.584,0-3.017,0.408-4.297,1.225c-1.279,0.814-2.424,1.951-3.432,3.408V303.322z"/>
		<path fill="#666666" d="M642.762,308.529h-2.184c-0.225,0-0.4-0.068-0.528-0.203c-0.128-0.137-0.232-0.268-0.312-0.396
			l-7.248-10.584c-0.064,0.287-0.185,0.568-0.36,0.84l-6.912,9.744c-0.112,0.145-0.228,0.279-0.349,0.408
			c-0.119,0.129-0.275,0.191-0.467,0.191h-2.064l8.688-12.215l-8.352-11.664h2.184c0.225,0,0.393,0.047,0.504,0.143
			c0.112,0.098,0.208,0.209,0.289,0.336l7.008,10.105c0.031-0.129,0.084-0.264,0.155-0.408c0.072-0.145,0.147-0.289,0.228-0.432
			l6.553-9.24c0.096-0.145,0.199-0.264,0.313-0.361c0.111-0.096,0.256-0.143,0.432-0.143h2.088l-8.328,11.52L642.762,308.529z"/>
	</g>
</g>
</svg>
