<?xml version="1.0" encoding="utf-8"?>
<!-- Generator: Adobe Illustrator 16.0.0, SVG Export Plug-In . SVG Version: 6.00 Build 0)  -->
<!DOCTYPE svg PUBLIC "-//W3C//DTD SVG 1.1//EN" "http://www.w3.org/Graphics/SVG/1.1/DTD/svg11.dtd">
<svg version="1.1" xmlns="http://www.w3.org/2000/svg" xmlns:xlink="http://www.w3.org/1999/xlink" x="0px" y="0px" width="1000px"
	 height="320px" viewBox="0 0 1000 320" enable-background="new 0 0 1000 320" xml:space="preserve">
<g id="bg">
	<linearGradient id="SVGID_1_" gradientUnits="userSpaceOnUse" x1="694.2822" y1="496.5068" x2="305.7182" y2="-176.5057">
		<stop  offset="0" style="stop-color:#E6E6E6"/>
		<stop  offset="0.3752" style="stop-color:#E3E3E3"/>
		<stop  offset="0.5977" style="stop-color:#DBDBDB"/>
		<stop  offset="0.7803" style="stop-color:#CDCDCD"/>
		<stop  offset="0.9404" style="stop-color:#B9B9B9"/>
		<stop  offset="0.9785" style="stop-color:#B3B3B3"/>
	</linearGradient>
	<rect fill="url(#SVGID_1_)" width="1000" height="320"/>
</g>
<g id="Layer_2">
</g>
<g id="Layer_3">
	<g>
		<g>
			<path fill="#808080" d="M578.483,71.678c-1.839,0-3.33,1.491-3.33,3.33v122.88H424.847V47.581h153.637
				c1.839,0,3.33-1.491,3.33-3.33c0-1.838-1.491-3.33-3.33-3.33H421.517c-1.839,0-3.33,1.491-3.33,3.33v156.967
				c0,1.838,1.491,3.33,3.33,3.33h156.967c1.839,0,3.33-1.492,3.33-3.33V75.008C581.813,73.168,580.322,71.678,578.483,71.678z"/>
			<path fill="#808080" d="M439.896,59.302c-1.838,0-3.329,1.491-3.329,3.33v96.485c0,1.838,1.491,3.328,3.329,3.328h120.206
				c1.839,0,3.33-1.49,3.33-3.328V62.632c0-1.839-1.491-3.33-3.33-3.33H439.896z M443.227,65.961h113.547v84.904l-34.801-34.801
				c-1.301-1.301-3.41-1.301-4.708,0l-9.613,9.613l-17.157-17.157c-1.301-1.301-3.409-1.301-4.709,0l-33.02,33.021
				c-1.301,1.299-1.301,3.408,0,4.709c1.3,1.299,3.409,1.299,4.708,0l30.666-30.667l17.157,17.157c1.3,1.301,3.409,1.301,4.709,0
				l9.612-9.612l32.659,32.66H443.227V65.961z"/>
		</g>
		<g>
			<path fill="#666666" d="M378.19,264.653v1.776h-17.52v-1.776h7.8v-27.552c0-0.544,0.024-1.119,0.072-1.728l-7.488,6.647
				c-0.224,0.192-0.448,0.265-0.672,0.216c-0.225-0.048-0.4-0.144-0.528-0.288l-0.696-0.96l9.816-8.663h1.8v32.327H378.19z"/>
			<path fill="#666666" d="M408.189,249.438c0,2.977-0.32,5.553-0.96,7.729c-0.64,2.176-1.512,3.976-2.616,5.399
				c-1.104,1.425-2.396,2.484-3.876,3.181c-1.48,0.695-3.06,1.044-4.74,1.044s-3.256-0.349-4.728-1.044
				c-1.472-0.696-2.76-1.756-3.864-3.181c-1.104-1.424-1.972-3.224-2.604-5.399c-0.632-2.176-0.948-4.752-0.948-7.729
				c0-2.976,0.316-5.552,0.948-7.728c0.632-2.176,1.5-3.976,2.604-5.4c1.104-1.424,2.392-2.483,3.864-3.18
				c1.472-0.696,3.048-1.044,4.728-1.044s3.26,0.348,4.74,1.044c1.479,0.696,2.772,1.756,3.876,3.18
				c1.104,1.425,1.976,3.225,2.616,5.4C407.869,243.886,408.189,246.462,408.189,249.438z M405.79,249.438
				c0-2.752-0.264-5.104-0.792-7.056s-1.236-3.548-2.124-4.788s-1.928-2.148-3.12-2.724c-1.192-0.576-2.444-0.864-3.756-0.864
				c-1.312,0-2.56,0.288-3.744,0.864c-1.184,0.575-2.224,1.483-3.12,2.724c-0.896,1.24-1.608,2.836-2.136,4.788
				s-0.792,4.304-0.792,7.056c0,2.769,0.264,5.124,0.792,7.068c0.528,1.943,1.24,3.536,2.136,4.775
				c0.896,1.24,1.936,2.145,3.12,2.713c1.184,0.567,2.432,0.852,3.744,0.852c1.312,0,2.564-0.284,3.756-0.852
				c1.192-0.568,2.232-1.473,3.12-2.713c0.888-1.239,1.596-2.832,2.124-4.775C405.525,254.562,405.79,252.206,405.79,249.438z"/>
			<path fill="#666666" d="M436.029,249.438c0,2.977-0.32,5.553-0.96,7.729c-0.64,2.176-1.512,3.976-2.616,5.399
				c-1.104,1.425-2.396,2.484-3.876,3.181c-1.48,0.695-3.06,1.044-4.74,1.044s-3.256-0.349-4.728-1.044
				c-1.472-0.696-2.76-1.756-3.864-3.181c-1.104-1.424-1.972-3.224-2.604-5.399c-0.632-2.176-0.948-4.752-0.948-7.729
				c0-2.976,0.316-5.552,0.948-7.728c0.632-2.176,1.5-3.976,2.604-5.4c1.104-1.424,2.392-2.483,3.864-3.18
				c1.472-0.696,3.048-1.044,4.728-1.044s3.26,0.348,4.74,1.044c1.479,0.696,2.772,1.756,3.876,3.18
				c1.104,1.425,1.976,3.225,2.616,5.4C435.708,243.886,436.029,246.462,436.029,249.438z M433.629,249.438
				c0-2.752-0.264-5.104-0.792-7.056s-1.236-3.548-2.124-4.788s-1.928-2.148-3.12-2.724c-1.192-0.576-2.444-0.864-3.756-0.864
				c-1.312,0-2.56,0.288-3.744,0.864c-1.184,0.575-2.224,1.483-3.12,2.724c-0.896,1.24-1.608,2.836-2.136,4.788
				s-0.792,4.304-0.792,7.056c0,2.769,0.264,5.124,0.792,7.068c0.528,1.943,1.24,3.536,2.136,4.775
				c0.896,1.24,1.936,2.145,3.12,2.713c1.184,0.567,2.432,0.852,3.744,0.852c1.312,0,2.564-0.284,3.756-0.852
				c1.192-0.568,2.232-1.473,3.12-2.713c0.888-1.239,1.596-2.832,2.124-4.775C433.365,254.562,433.629,252.206,433.629,249.438z"/>
			<path fill="#666666" d="M463.868,249.438c0,2.977-0.32,5.553-0.96,7.729c-0.64,2.176-1.512,3.976-2.616,5.399
				c-1.104,1.425-2.396,2.484-3.876,3.181c-1.48,0.695-3.06,1.044-4.74,1.044s-3.256-0.349-4.728-1.044
				c-1.472-0.696-2.76-1.756-3.864-3.181c-1.104-1.424-1.972-3.224-2.604-5.399c-0.632-2.176-0.948-4.752-0.948-7.729
				c0-2.976,0.316-5.552,0.948-7.728c0.632-2.176,1.5-3.976,2.604-5.4c1.104-1.424,2.392-2.483,3.864-3.18
				c1.472-0.696,3.048-1.044,4.728-1.044s3.26,0.348,4.74,1.044c1.479,0.696,2.772,1.756,3.876,3.18
				c1.104,1.425,1.976,3.225,2.616,5.4C463.548,243.886,463.868,246.462,463.868,249.438z M461.468,249.438
				c0-2.752-0.264-5.104-0.792-7.056s-1.236-3.548-2.124-4.788s-1.928-2.148-3.12-2.724c-1.192-0.576-2.444-0.864-3.756-0.864
				c-1.312,0-2.56,0.288-3.744,0.864c-1.184,0.575-2.224,1.483-3.12,2.724c-0.896,1.24-1.608,2.836-2.136,4.788
				s-0.792,4.304-0.792,7.056c0,2.769,0.264,5.124,0.792,7.068c0.528,1.943,1.24,3.536,2.136,4.775
				c0.896,1.24,1.936,2.145,3.12,2.713c1.184,0.567,2.432,0.852,3.744,0.852c1.312,0,2.564-0.284,3.756-0.852
				c1.192-0.568,2.232-1.473,3.12-2.713c0.888-1.239,1.596-2.832,2.124-4.775C461.204,254.562,461.468,252.206,461.468,249.438z"/>
			<path fill="#666666" d="M500.107,266.43h-2.184c-0.224,0-0.4-0.068-0.528-0.204c-0.128-0.136-0.232-0.268-0.312-0.396
				l-7.248-10.584c-0.064,0.287-0.184,0.567-0.36,0.84l-6.912,9.744c-0.112,0.144-0.228,0.279-0.348,0.407
				c-0.12,0.129-0.276,0.192-0.468,0.192h-2.064l8.688-12.216l-8.352-11.664h2.184c0.224,0,0.392,0.048,0.504,0.144
				c0.112,0.097,0.208,0.208,0.288,0.336l7.008,10.104c0.032-0.128,0.084-0.264,0.156-0.408c0.072-0.144,0.148-0.288,0.228-0.432
				l6.552-9.24c0.096-0.144,0.2-0.264,0.312-0.36c0.112-0.096,0.256-0.144,0.432-0.144h2.088l-8.328,11.52L500.107,266.43z"/>
			<path fill="#666666" d="M517.939,241.254c0.207-1.456,0.607-2.752,1.199-3.889c0.592-1.136,1.345-2.096,2.257-2.88
				c0.911-0.783,1.968-1.38,3.168-1.788c1.2-0.407,2.495-0.611,3.888-0.611c1.296,0,2.52,0.18,3.672,0.54
				c1.152,0.359,2.164,0.899,3.036,1.62c0.872,0.72,1.56,1.616,2.063,2.688c0.505,1.072,0.757,2.313,0.757,3.72
				c0,1.104-0.168,2.101-0.505,2.988c-0.336,0.888-0.803,1.668-1.403,2.34s-1.308,1.236-2.124,1.692s-1.704,0.804-2.664,1.044
				c2.496,0.464,4.38,1.428,5.652,2.892c1.271,1.464,1.908,3.292,1.908,5.484c0,1.392-0.281,2.685-0.84,3.876
				c-0.561,1.192-1.328,2.22-2.305,3.084s-2.128,1.54-3.456,2.028c-1.328,0.487-2.769,0.731-4.319,0.731
				c-1.937,0-3.549-0.26-4.836-0.78c-1.289-0.52-2.349-1.195-3.181-2.027s-1.479-1.765-1.944-2.796
				c-0.464-1.032-0.84-2.061-1.127-3.084l0.911-0.385c0.256-0.111,0.524-0.144,0.804-0.096c0.28,0.048,0.484,0.232,0.612,0.552
				c0.08,0.192,0.188,0.492,0.324,0.9s0.332,0.86,0.588,1.356s0.588,1.004,0.996,1.523c0.408,0.521,0.92,0.996,1.536,1.428
				c0.615,0.433,1.355,0.784,2.22,1.057s1.888,0.408,3.072,0.408c1.44,0,2.7-0.24,3.78-0.721c1.08-0.479,1.983-1.092,2.711-1.836
				c0.729-0.744,1.272-1.575,1.633-2.496c0.359-0.92,0.54-1.812,0.54-2.676c0-1.04-0.165-2.008-0.492-2.904
				c-0.328-0.896-0.876-1.668-1.644-2.315c-0.769-0.648-1.781-1.16-3.037-1.536s-2.804-0.564-4.644-0.564v-1.655
				c1.472-0.032,2.769-0.229,3.888-0.588c1.12-0.36,2.057-0.853,2.809-1.477s1.32-1.368,1.704-2.231
				c0.384-0.864,0.575-1.816,0.575-2.856c0-1.2-0.199-2.24-0.6-3.12s-0.936-1.607-1.607-2.184s-1.457-1-2.353-1.272
				c-0.896-0.271-1.832-0.408-2.808-0.408c-1.072,0-2.064,0.165-2.977,0.492c-0.912,0.328-1.716,0.784-2.412,1.368
				c-0.695,0.584-1.275,1.28-1.739,2.088c-0.464,0.809-0.784,1.692-0.96,2.652c-0.096,0.352-0.232,0.584-0.408,0.696
				c-0.176,0.111-0.424,0.151-0.744,0.119L517.939,241.254z"/>
			<path fill="#666666" d="M565.891,264.27c0.256,0,0.456,0.076,0.6,0.229c0.145,0.152,0.217,0.348,0.217,0.588v1.344h-21.912
				v-0.816c0-0.176,0.043-0.355,0.132-0.54c0.088-0.184,0.204-0.339,0.349-0.468l11.592-11.735c0.959-0.977,1.848-1.921,2.664-2.832
				c0.815-0.912,1.523-1.832,2.123-2.761c0.601-0.928,1.068-1.88,1.404-2.855s0.504-2.017,0.504-3.12
				c0-1.248-0.208-2.332-0.624-3.252s-0.968-1.676-1.655-2.269c-0.688-0.592-1.488-1.031-2.4-1.319s-1.856-0.433-2.832-0.433
				c-1.072,0-2.061,0.165-2.965,0.492c-0.903,0.328-1.703,0.784-2.399,1.368s-1.272,1.28-1.728,2.088
				c-0.457,0.809-0.772,1.692-0.948,2.652c-0.112,0.352-0.261,0.584-0.444,0.696c-0.184,0.111-0.436,0.151-0.756,0.119l-1.176-0.191
				c0.207-1.456,0.607-2.752,1.199-3.889c0.592-1.136,1.345-2.096,2.257-2.88c0.911-0.783,1.968-1.38,3.168-1.788
				c1.2-0.407,2.496-0.611,3.888-0.611c1.297,0,2.532,0.188,3.708,0.563c1.177,0.376,2.216,0.944,3.12,1.704
				c0.904,0.761,1.62,1.713,2.148,2.856c0.527,1.144,0.791,2.483,0.791,4.02c0,1.28-0.195,2.469-0.588,3.564
				c-0.392,1.096-0.924,2.147-1.596,3.155c-0.672,1.009-1.451,1.988-2.34,2.94s-1.82,1.924-2.796,2.916l-10.632,10.848
				c0.512-0.128,1.044-0.224,1.596-0.288c0.553-0.063,1.107-0.096,1.668-0.096H565.891z"/>
			<path fill="#666666" d="M595.962,249.438c0,2.977-0.32,5.553-0.96,7.729c-0.641,2.176-1.512,3.976-2.615,5.399
				c-1.104,1.425-2.396,2.484-3.877,3.181c-1.48,0.695-3.06,1.044-4.74,1.044c-1.68,0-3.256-0.349-4.728-1.044
				c-1.472-0.696-2.76-1.756-3.864-3.181c-1.104-1.424-1.972-3.224-2.604-5.399c-0.633-2.176-0.948-4.752-0.948-7.729
				c0-2.976,0.315-5.552,0.948-7.728c0.632-2.176,1.5-3.976,2.604-5.4c1.104-1.424,2.393-2.483,3.864-3.18s3.048-1.044,4.728-1.044
				c1.681,0,3.26,0.348,4.74,1.044s2.772,1.756,3.877,3.18c1.104,1.425,1.975,3.225,2.615,5.4
				C595.642,243.886,595.962,246.462,595.962,249.438z M593.563,249.438c0-2.752-0.265-5.104-0.793-7.056
				c-0.527-1.952-1.235-3.548-2.123-4.788c-0.889-1.24-1.929-2.148-3.121-2.724c-1.191-0.576-2.443-0.864-3.756-0.864
				c-1.312,0-2.56,0.288-3.744,0.864c-1.184,0.575-2.224,1.483-3.119,2.724c-0.896,1.24-1.608,2.836-2.137,4.788
				c-0.527,1.952-0.791,4.304-0.791,7.056c0,2.769,0.264,5.124,0.791,7.068c0.528,1.943,1.24,3.536,2.137,4.775
				c0.896,1.24,1.936,2.145,3.119,2.713c1.185,0.567,2.433,0.852,3.744,0.852c1.313,0,2.564-0.284,3.756-0.852
				c1.192-0.568,2.232-1.473,3.121-2.713c0.888-1.239,1.596-2.832,2.123-4.775C593.298,254.562,593.563,252.206,593.563,249.438z"/>
			<path fill="#666666" d="M603.857,246.846c1.057-1.44,2.292-2.584,3.708-3.432c1.416-0.849,3.004-1.272,4.765-1.272
				c2.928,0,5.211,1.017,6.852,3.048c1.64,2.032,2.46,5.08,2.46,9.145c0,1.744-0.228,3.372-0.685,4.884
				c-0.455,1.512-1.127,2.824-2.016,3.936c-0.889,1.112-1.977,1.988-3.264,2.628c-1.289,0.641-2.772,0.96-4.452,0.96
				c-1.616,0-3.017-0.296-4.2-0.888s-2.208-1.464-3.072-2.616v11.641h-2.304V242.55h1.272c0.399,0,0.631,0.2,0.695,0.6
				L603.857,246.846z M603.953,261.222c0.465,0.688,0.948,1.269,1.452,1.74s1.036,0.855,1.597,1.151
				c0.559,0.297,1.155,0.509,1.787,0.637c0.633,0.128,1.301,0.191,2.004,0.191c1.408,0,2.641-0.256,3.696-0.768
				s1.94-1.236,2.652-2.172c0.712-0.937,1.247-2.056,1.608-3.36c0.359-1.304,0.539-2.739,0.539-4.308
				c0-3.553-0.656-6.164-1.968-7.836s-3.192-2.509-5.64-2.509c-1.584,0-3.017,0.408-4.297,1.225
				c-1.279,0.815-2.424,1.952-3.432,3.408V261.222z"/>
			<path fill="#666666" d="M644.682,266.43h-2.184c-0.225,0-0.4-0.068-0.528-0.204s-0.232-0.268-0.312-0.396l-7.248-10.584
				c-0.064,0.287-0.185,0.567-0.36,0.84l-6.912,9.744c-0.112,0.144-0.228,0.279-0.349,0.407c-0.119,0.129-0.275,0.192-0.467,0.192
				h-2.064l8.688-12.216l-8.352-11.664h2.184c0.225,0,0.393,0.048,0.504,0.144c0.112,0.097,0.208,0.208,0.289,0.336l7.008,10.104
				c0.031-0.128,0.084-0.264,0.155-0.408c0.072-0.144,0.147-0.288,0.228-0.432l6.553-9.24c0.096-0.144,0.199-0.264,0.313-0.36
				c0.111-0.096,0.256-0.144,0.432-0.144h2.088l-8.328,11.52L644.682,266.43z"/>
		</g>
	</g>
</g>
</svg>
