<?xml version="1.0" encoding="utf-8"?>
<!-- Generator: Adobe Illustrator 16.0.0, SVG Export Plug-In . SVG Version: 6.00 Build 0)  -->
<!DOCTYPE svg PUBLIC "-//W3C//DTD SVG 1.1//EN" "http://www.w3.org/Graphics/SVG/1.1/DTD/svg11.dtd">
<svg version="1.1" id="Layer_1" xmlns="http://www.w3.org/2000/svg" xmlns:xlink="http://www.w3.org/1999/xlink" x="0px" y="0px"
	 width="250px" height="212px" viewBox="0 0 250 212" enable-background="new 0 0 250 212" xml:space="preserve">
<path fill="#1C75BC" d="M246.291,212c0,0,1.741-10.447-6.963-14.508c-8.707-4.063-59.776-29.018-68.48-33.079
	c-8.705-4.063-6.383-15.089-6.964-16.83c-0.58-1.741-5.803,0-5.803,0l-2.322-20.892c0,0,12.139-13.853,10.344-26.124
	c0,0,5.687,1.198,8.68-13.17c2.993-14.369,0.299-16.763-1.795-15.266l3.892-26.042c0,0,1.441-14.195-4.222-26.937
	c-6.216,0.542-14.076,1.021-23.846-2.589c-7.815-2.889-16.564-8.495-18.478-9.703c-8.511-5.431-21.885-8.525-31.973-5.923
	c-10.085,2.602-18.82,10.427-21.458,16.515c-5.663,12.743-3.779,28.637-3.779,28.637l3.892,26.042
	c-2.097-1.497-4.791,0.897-1.797,15.266c2.994,14.368,8.682,13.17,8.682,13.17c-1.797,12.271,10.343,26.124,10.343,26.124
	l-2.322,20.892c0,0-5.222-1.741-5.803,0s1.741,12.767-6.964,16.83c-8.705,4.062-59.775,29.017-68.479,33.079
	C1.969,201.553,3.71,212,3.71,212H246.291z"/>
</svg>
