<?xml version="1.0" encoding="utf-8"?>
<!-- Generator: Adobe Illustrator 16.0.0, SVG Export Plug-In . SVG Version: 6.00 Build 0)  -->
<!DOCTYPE svg PUBLIC "-//W3C//DTD SVG 1.1//EN" "http://www.w3.org/Graphics/SVG/1.1/DTD/svg11.dtd">
<svg version="1.1" id="Layer_1" xmlns="http://www.w3.org/2000/svg" xmlns:xlink="http://www.w3.org/1999/xlink" x="0px" y="0px"
	 width="250px" height="212px" viewBox="0 0 250 212" enable-background="new 0 0 250 212" xml:space="preserve">
<path fill="#1C75BC" d="M0.153,212c0,0-1.792-10.753,7.168-14.934c8.96-4.184,61.53-29.869,70.492-34.053
	c2.067-10.546,6.571-15.531,7.168-17.322c0.597-1.793,5.974,0,5.974,0l2.389-21.506c0,0-26.193,3.924-24.345-8.709
	c0,0,7.844-16.951,4.763-31.741c-3.082-14.79-3.51-24.393-2.157-42.522c1.541-20.645,19.91-41.29,53.401-41.29
	c33.491,0,51.86,20.645,53.401,41.29c1.353,18.129,0.925,27.732-2.157,42.522c-3.081,14.791,4.764,31.741,4.764,31.741
	c1.848,12.633-24.346,8.709-24.346,8.709l2.389,21.506c0,0,5.377-1.793,5.975,0c0.599,1.791,5.103,6.776,7.169,17.322
	c8.961,4.184,61.53,29.869,70.491,34.053c8.961,4.181,7.168,14.934,7.168,14.934H0.153z"/>
</svg>
