<?xml version="1.0" encoding="utf-8"?>
<!-- Generator: Adobe Illustrator 16.0.0, SVG Export Plug-In . SVG Version: 6.00 Build 0)  -->
<!DOCTYPE svg PUBLIC "-//W3C//DTD SVG 1.1//EN" "http://www.w3.org/Graphics/SVG/1.1/DTD/svg11.dtd">
<svg version="1.1" id="Layer_1" xmlns="http://www.w3.org/2000/svg" xmlns:xlink="http://www.w3.org/1999/xlink" x="0px" y="0px"
	 width="250px" height="212px" viewBox="0 0 250 212" enable-background="new 0 0 250 212" xml:space="preserve">
<path fill="#1C75BC" d="M249.809,212c0,0,1.793-10.749-7.166-14.93c-8.956-4.18-61.508-29.857-70.467-34.038
	c-2.065-10.542-6.567-15.525-7.165-17.318c-0.598-1.791-5.972,0-5.972,0l-2.389-21.499c0,0,4.122,5.783,6.911,58.475
	c-1.565-14.724,13.366-110.95,12.805-129.114c-0.815-26.402-17.887-53.575-51.366-53.575c-33.48,0-50.551,27.173-51.366,53.575
	C73.074,71.74,88.005,167.966,86.439,182.69c2.789-52.691,6.911-58.475,6.911-58.475l-2.388,21.499c0,0-5.375-1.791-5.972,0
	c-0.598,1.793-5.1,6.776-7.166,17.318c-8.958,4.181-61.509,29.858-70.467,34.038C-1.6,201.251,0.192,212,0.192,212H249.809z"/>
</svg>
