<?xml version="1.0" encoding="utf-8"?>
<!-- Generator: Adobe Illustrator 16.0.0, SVG Export Plug-In . SVG Version: 6.00 Build 0)  -->
<!DOCTYPE svg PUBLIC "-//W3C//DTD SVG 1.1//EN" "http://www.w3.org/Graphics/SVG/1.1/DTD/svg11.dtd">
<svg version="1.1" id="Layer_1" xmlns="http://www.w3.org/2000/svg" xmlns:xlink="http://www.w3.org/1999/xlink" x="0px" y="0px"
	 width="250px" height="212px" viewBox="0 0 250 212" enable-background="new 0 0 250 212" xml:space="preserve">
<path fill="#1C75BC" d="M125,15.635c0-8.898,7.213-16.111,16.112-16.111c8.897,0,16.111,7.213,16.111,16.111
	c0,1.403-0.181,2.765-0.518,4.063c2.845-2.526,6.589-4.063,10.692-4.063c8.897,0,16.111,7.214,16.111,16.112
	c0,3.331-1.012,6.426-2.744,8.995c5.845,2.418,9.958,8.174,9.958,14.892c0,5.077-2.352,9.604-6.021,12.557
	c3.67,2.953,6.021,7.48,6.021,12.557c0,7.244-4.78,13.369-11.356,15.398c0.627,1.72,0.969,3.577,0.969,5.513
	c0,8.898-7.214,16.112-16.111,16.112c-0.653,0-1.297-0.043-1.929-0.119c-2.936,7.279-7.98,13.039-7.98,13.039l2.214,19.912
	c0,0,4.978-1.66,5.531,0c0.553,1.66-1.66,12.169,6.637,16.041s56.973,27.656,65.271,31.528c8.296,3.872,6.638,13.829,6.638,13.829
	H9.396c0,0-1.66-9.957,6.638-13.829c8.296-3.872,56.972-27.656,65.269-31.528c8.297-3.872,6.083-14.381,6.637-16.041
	s5.531,0,5.531,0l2.213-19.912c0,0-5.044-5.76-7.978-13.039c-0.634,0.076-1.276,0.119-1.93,0.119
	c-8.898,0-16.111-7.214-16.111-16.112c0-1.936,0.343-3.793,0.968-5.513c-6.576-2.029-11.356-8.154-11.356-15.398
	c0-5.077,2.351-9.604,6.021-12.557c-3.67-2.953-6.021-7.479-6.021-12.557c0-6.718,4.112-12.474,9.957-14.892
	c-1.732-2.569-2.743-5.664-2.743-8.995c0-8.898,7.214-16.112,16.112-16.112c4.104,0,7.847,1.537,10.691,4.063
	c-0.337-1.298-0.517-2.659-0.517-4.063c0-8.898,7.213-16.111,16.112-16.111S125,6.737,125,15.635z"/>
</svg>
