<?xml version="1.0" encoding="utf-8"?>
<!-- Generator: Adobe Illustrator 16.0.0, SVG Export Plug-In . SVG Version: 6.00 Build 0)  -->
<!DOCTYPE svg PUBLIC "-//W3C//DTD SVG 1.1//EN" "http://www.w3.org/Graphics/SVG/1.1/DTD/svg11.dtd">
<svg version="1.1" id="Layer_1" xmlns="http://www.w3.org/2000/svg" xmlns:xlink="http://www.w3.org/1999/xlink" x="0px" y="0px"
	 width="250px" height="212px" viewBox="0 0 250 212" enable-background="new 0 0 250 212" xml:space="preserve">
<path fill="#1C75BC" d="M0.146,212c0,0-1.792-10.753,7.168-14.935c8.961-4.182,61.531-29.868,70.492-34.051
	c8.96-4.182,6.571-15.531,7.168-17.324c0.598-1.792,5.974,0,5.974,0l2.39-21.506c0,0-12.496-14.258-10.647-26.891
	c0,0-5.854,1.233-8.935-13.558c-3.082-14.79-0.308-17.255,1.848-15.714c0,0-5.358-8.678-4.005-26.808
	C73.14,20.57,91.509-0.075,125.001-0.075c33.489,0,51.859,20.645,53.398,41.289c1.354,18.129-4.005,26.808-4.005,26.808
	c2.157-1.541,4.931,0.924,1.849,15.714c-3.081,14.791-8.937,13.558-8.937,13.558c1.85,12.633-10.646,26.891-10.646,26.891
	l2.391,21.506c0,0,5.375-1.792,5.974,0c0.598,1.793-1.793,13.143,7.169,17.324c8.96,4.183,61.53,29.869,70.49,34.051
	c8.962,4.182,7.17,14.935,7.17,14.935H0.146z"/>
</svg>
