<svg xmlns="http://www.w3.org/2000/svg" width="1000" height="320" viewBox="0 0 1000 320"><linearGradient id="a" gradientUnits="userSpaceOnUse" x1="694.282" y1="496.507" x2="305.718" y2="-176.506"><stop offset="0" stop-color="#e6e6e6"/><stop offset=".375" stop-color="#e3e3e3"/><stop offset=".598" stop-color="#dbdbdb"/><stop offset=".78" stop-color="#cdcdcd"/><stop offset=".94" stop-color="#b9b9b9"/><stop offset=".979" stop-color="#b3b3b3"/></linearGradient><path fill="url(#a)" d="M0 0h1000v320H0z"/><g><g fill="gray"><path d="M578.483 71.678a3.33 3.33 0 0 0-3.33 3.33v122.88H424.847V47.581h153.637a3.33 3.33 0 0 0 0-6.66H421.517a3.33 3.33 0 0 0-3.33 3.33v156.967a3.33 3.33 0 0 0 3.33 3.33h156.967a3.33 3.33 0 0 0 3.33-3.33V75.008a3.331 3.331 0 0 0-3.331-3.33z"/><path d="M439.896 59.302a3.33 3.33 0 0 0-3.329 3.33v96.485a3.329 3.329 0 0 0 3.329 3.328h120.206a3.33 3.33 0 0 0 3.33-3.328V62.632a3.33 3.33 0 0 0-3.33-3.33H439.896zm3.331 6.659h113.547v84.904l-34.801-34.801a3.327 3.327 0 0 0-4.708 0l-9.613 9.613-17.157-17.157a3.329 3.329 0 0 0-4.709 0l-33.02 33.021a3.329 3.329 0 1 0 4.708 4.709l30.666-30.667 17.157 17.157a3.329 3.329 0 0 0 4.709 0l9.612-9.612 32.659 32.66h-109.05V65.961z"/></g><g fill="#666"><path d="M378.19 264.653v1.776h-17.52v-1.776h7.8v-27.552c0-.544.024-1.119.072-1.728l-7.488 6.647c-.224.192-.448.265-.672.216a.945.945 0 0 1-.528-.288l-.696-.96 9.816-8.663h1.8v32.327h7.416zM408.189 249.438c0 2.977-.32 5.553-.96 7.729-.64 2.176-1.512 3.976-2.616 5.399-1.104 1.425-2.396 2.484-3.876 3.181-1.48.695-3.06 1.044-4.74 1.044s-3.256-.349-4.728-1.044c-1.472-.696-2.76-1.756-3.864-3.181-1.104-1.424-1.972-3.224-2.604-5.399-.632-2.176-.948-4.752-.948-7.729 0-2.976.316-5.552.948-7.728.632-2.176 1.5-3.976 2.604-5.4 1.104-1.424 2.392-2.483 3.864-3.18 1.472-.696 3.048-1.044 4.728-1.044s3.26.348 4.74 1.044c1.479.696 2.772 1.756 3.876 3.18 1.104 1.425 1.976 3.225 2.616 5.4.64 2.176.96 4.752.96 7.728zm-2.399 0c0-2.752-.264-5.104-.792-7.056s-1.236-3.548-2.124-4.788-1.928-2.148-3.12-2.724a8.527 8.527 0 0 0-3.756-.864c-1.312 0-2.56.288-3.744.864-1.184.575-2.224 1.483-3.12 2.724-.896 1.24-1.608 2.836-2.136 4.788s-.792 4.304-.792 7.056c0 2.769.264 5.124.792 7.068.528 1.943 1.24 3.536 2.136 4.775.896 1.24 1.936 2.145 3.12 2.713a8.564 8.564 0 0 0 3.744.852 8.627 8.627 0 0 0 3.756-.852c1.192-.568 2.232-1.473 3.12-2.713.888-1.239 1.596-2.832 2.124-4.775.527-1.944.792-4.3.792-7.068zM436.029 249.438c0 2.977-.32 5.553-.96 7.729-.64 2.176-1.512 3.976-2.616 5.399-1.104 1.425-2.396 2.484-3.876 3.181-1.48.695-3.06 1.044-4.74 1.044s-3.256-.349-4.728-1.044c-1.472-.696-2.76-1.756-3.864-3.181-1.104-1.424-1.972-3.224-2.604-5.399-.632-2.176-.948-4.752-.948-7.729 0-2.976.316-5.552.948-7.728.632-2.176 1.5-3.976 2.604-5.4 1.104-1.424 2.392-2.483 3.864-3.18 1.472-.696 3.048-1.044 4.728-1.044s3.26.348 4.74 1.044c1.479.696 2.772 1.756 3.876 3.18 1.104 1.425 1.976 3.225 2.616 5.4.639 2.176.96 4.752.96 7.728zm-2.4 0c0-2.752-.264-5.104-.792-7.056s-1.236-3.548-2.124-4.788-1.928-2.148-3.12-2.724a8.527 8.527 0 0 0-3.756-.864c-1.312 0-2.56.288-3.744.864-1.184.575-2.224 1.483-3.12 2.724-.896 1.24-1.608 2.836-2.136 4.788s-.792 4.304-.792 7.056c0 2.769.264 5.124.792 7.068.528 1.943 1.24 3.536 2.136 4.775.896 1.24 1.936 2.145 3.12 2.713a8.564 8.564 0 0 0 3.744.852 8.627 8.627 0 0 0 3.756-.852c1.192-.568 2.232-1.473 3.12-2.713.888-1.239 1.596-2.832 2.124-4.775.528-1.944.792-4.3.792-7.068zM463.868 249.438c0 2.977-.32 5.553-.96 7.729-.64 2.176-1.512 3.976-2.616 5.399-1.104 1.425-2.396 2.484-3.876 3.181-1.48.695-3.06 1.044-4.74 1.044s-3.256-.349-4.728-1.044c-1.472-.696-2.76-1.756-3.864-3.181-1.104-1.424-1.972-3.224-2.604-5.399-.632-2.176-.948-4.752-.948-7.729 0-2.976.316-5.552.948-7.728.632-2.176 1.5-3.976 2.604-5.4 1.104-1.424 2.392-2.483 3.864-3.18 1.472-.696 3.048-1.044 4.728-1.044s3.26.348 4.74 1.044c1.479.696 2.772 1.756 3.876 3.18 1.104 1.425 1.976 3.225 2.616 5.4.64 2.176.96 4.752.96 7.728zm-2.4 0c0-2.752-.264-5.104-.792-7.056s-1.236-3.548-2.124-4.788-1.928-2.148-3.12-2.724a8.527 8.527 0 0 0-3.756-.864c-1.312 0-2.56.288-3.744.864-1.184.575-2.224 1.483-3.12 2.724-.896 1.24-1.608 2.836-2.136 4.788s-.792 4.304-.792 7.056c0 2.769.264 5.124.792 7.068.528 1.943 1.24 3.536 2.136 4.775.896 1.24 1.936 2.145 3.12 2.713a8.564 8.564 0 0 0 3.744.852 8.627 8.627 0 0 0 3.756-.852c1.192-.568 2.232-1.473 3.12-2.713.888-1.239 1.596-2.832 2.124-4.775.528-1.944.792-4.3.792-7.068zM500.107 266.43h-2.184c-.224 0-.4-.068-.528-.204a2.585 2.585 0 0 1-.312-.396l-7.248-10.584a2.586 2.586 0 0 1-.36.84l-6.912 9.744a5.803 5.803 0 0 1-.348.407.609.609 0 0 1-.468.192h-2.064l8.688-12.216-8.352-11.664h2.184c.224 0 .392.048.504.144.112.097.208.208.288.336l7.008 10.104a2.01 2.01 0 0 1 .156-.408c.072-.144.148-.288.228-.432l6.552-9.24c.096-.144.2-.264.312-.36a.64.64 0 0 1 .432-.144h2.088l-8.328 11.52 8.664 12.361zM517.939 241.254c.207-1.456.607-2.752 1.199-3.889a9.601 9.601 0 0 1 2.257-2.88 9.499 9.499 0 0 1 3.168-1.788c1.2-.407 2.495-.611 3.888-.611 1.296 0 2.52.18 3.672.54a8.83 8.83 0 0 1 3.036 1.62 7.642 7.642 0 0 1 2.063 2.688c.505 1.072.757 2.313.757 3.72 0 1.104-.168 2.101-.505 2.988-.336.888-.803 1.668-1.403 2.34s-1.308 1.236-2.124 1.692-1.704.804-2.664 1.044c2.496.464 4.38 1.428 5.652 2.892 1.271 1.464 1.908 3.292 1.908 5.484 0 1.392-.281 2.685-.84 3.876-.561 1.192-1.328 2.22-2.305 3.084s-2.128 1.54-3.456 2.028c-1.328.487-2.769.731-4.319.731-1.937 0-3.549-.26-4.836-.78-1.289-.52-2.349-1.195-3.181-2.027s-1.479-1.765-1.944-2.796a22.051 22.051 0 0 1-1.127-3.084l.911-.385a1.39 1.39 0 0 1 .804-.096c.28.048.484.232.612.552.08.192.188.492.324.9a9.67 9.67 0 0 0 1.584 2.879c.408.521.92.996 1.536 1.428.615.433 1.355.784 2.22 1.057s1.888.408 3.072.408c1.44 0 2.7-.24 3.78-.721 1.08-.479 1.983-1.092 2.711-1.836a7.4 7.4 0 0 0 1.633-2.496c.359-.92.54-1.812.54-2.676 0-1.04-.165-2.008-.492-2.904a5.437 5.437 0 0 0-1.644-2.315c-.769-.648-1.781-1.16-3.037-1.536s-2.804-.564-4.644-.564v-1.655c1.472-.032 2.769-.229 3.888-.588 1.12-.36 2.057-.853 2.809-1.477s1.32-1.368 1.704-2.231c.384-.864.575-1.816.575-2.856 0-1.2-.199-2.24-.6-3.12s-.936-1.607-1.607-2.184-1.457-1-2.353-1.272a9.647 9.647 0 0 0-2.808-.408c-1.072 0-2.064.165-2.977.492a7.844 7.844 0 0 0-2.412 1.368 7.73 7.73 0 0 0-1.739 2.088 8.289 8.289 0 0 0-.96 2.652c-.096.352-.232.584-.408.696-.176.111-.424.151-.744.119l-1.174-.191zM565.891 264.27c.256 0 .456.076.6.229a.817.817 0 0 1 .217.588v1.344h-21.912v-.816c0-.176.043-.355.132-.54a1.46 1.46 0 0 1 .349-.468l11.592-11.735a85.442 85.442 0 0 0 2.664-2.832 22.383 22.383 0 0 0 2.123-2.761c.601-.928 1.068-1.88 1.404-2.855s.504-2.017.504-3.12c0-1.248-.208-2.332-.624-3.252s-.968-1.676-1.655-2.269c-.688-.592-1.488-1.031-2.4-1.319s-1.856-.433-2.832-.433c-1.072 0-2.061.165-2.965.492-.903.328-1.703.784-2.399 1.368s-1.272 1.28-1.728 2.088a8.44 8.44 0 0 0-.948 2.652c-.112.352-.261.584-.444.696-.184.111-.436.151-.756.119l-1.176-.191c.207-1.456.607-2.752 1.199-3.889a9.601 9.601 0 0 1 2.257-2.88 9.499 9.499 0 0 1 3.168-1.788c1.2-.407 2.496-.611 3.888-.611 1.297 0 2.532.188 3.708.563a9.09 9.09 0 0 1 3.12 1.704c.904.761 1.62 1.713 2.148 2.856.527 1.144.791 2.483.791 4.02 0 1.28-.195 2.469-.588 3.564a14.443 14.443 0 0 1-1.596 3.155c-.672 1.009-1.451 1.988-2.34 2.94s-1.82 1.924-2.796 2.916l-10.632 10.848a12.52 12.52 0 0 1 1.596-.288 14.698 14.698 0 0 1 1.668-.096h14.663zM595.962 249.438c0 2.977-.32 5.553-.96 7.729-.641 2.176-1.512 3.976-2.615 5.399-1.104 1.425-2.396 2.484-3.877 3.181a11.015 11.015 0 0 1-4.74 1.044c-1.68 0-3.256-.349-4.728-1.044-1.472-.696-2.76-1.756-3.864-3.181-1.104-1.424-1.972-3.224-2.604-5.399-.633-2.176-.948-4.752-.948-7.729 0-2.976.315-5.552.948-7.728.632-2.176 1.5-3.976 2.604-5.4 1.104-1.424 2.393-2.483 3.864-3.18s3.048-1.044 4.728-1.044c1.681 0 3.26.348 4.74 1.044s2.772 1.756 3.877 3.18c1.104 1.425 1.975 3.225 2.615 5.4.64 2.176.96 4.752.96 7.728zm-2.399 0c0-2.752-.265-5.104-.793-7.056-.527-1.952-1.235-3.548-2.123-4.788-.889-1.24-1.929-2.148-3.121-2.724a8.521 8.521 0 0 0-3.756-.864c-1.312 0-2.56.288-3.744.864-1.184.575-2.224 1.483-3.119 2.724-.896 1.24-1.608 2.836-2.137 4.788-.527 1.952-.791 4.304-.791 7.056 0 2.769.264 5.124.791 7.068.528 1.943 1.24 3.536 2.137 4.775.896 1.24 1.936 2.145 3.119 2.713a8.57 8.57 0 0 0 3.744.852 8.624 8.624 0 0 0 3.756-.852c1.192-.568 2.232-1.473 3.121-2.713.888-1.239 1.596-2.832 2.123-4.775.528-1.944.793-4.3.793-7.068zM603.857 246.846c1.057-1.44 2.292-2.584 3.708-3.432 1.416-.849 3.004-1.272 4.765-1.272 2.928 0 5.211 1.017 6.852 3.048 1.64 2.032 2.46 5.08 2.46 9.145 0 1.744-.228 3.372-.685 4.884-.455 1.512-1.127 2.824-2.016 3.936a9.599 9.599 0 0 1-3.264 2.628c-1.289.641-2.772.96-4.452.96-1.616 0-3.017-.296-4.2-.888s-2.208-1.464-3.072-2.616v11.641h-2.304v-32.33h1.272c.399 0 .631.2.695.6l.241 3.696zm.096 14.376c.465.688.948 1.269 1.452 1.74s1.036.855 1.597 1.151a6.565 6.565 0 0 0 1.787.637c.633.128 1.301.191 2.004.191 1.408 0 2.641-.256 3.696-.768s1.94-1.236 2.652-2.172c.712-.937 1.247-2.056 1.608-3.36.359-1.304.539-2.739.539-4.308 0-3.553-.656-6.164-1.968-7.836s-3.192-2.509-5.64-2.509c-1.584 0-3.017.408-4.297 1.225-1.279.815-2.424 1.952-3.432 3.408v12.601zM644.682 266.43h-2.184c-.225 0-.4-.068-.528-.204s-.232-.268-.312-.396l-7.248-10.584a2.607 2.607 0 0 1-.36.84l-6.912 9.744a5.558 5.558 0 0 1-.349.407.605.605 0 0 1-.467.192h-2.064l8.688-12.216-8.352-11.664h2.184c.225 0 .393.048.504.144.112.097.208.208.289.336l7.008 10.104c.031-.128.084-.264.155-.408.072-.144.147-.288.228-.432l6.553-9.24c.096-.144.199-.264.313-.36a.639.639 0 0 1 .432-.144h2.088l-8.328 11.52 8.662 12.361z"/></g></g></svg>