<svg xmlns="http://www.w3.org/2000/svg" width="1000" height="400" viewBox="0 0 1000 400"><radialGradient id="a" cx="507.833" cy="199.806" r="468.418" gradientUnits="userSpaceOnUse"><stop offset="0" stop-color="#fff"/><stop offset=".979" stop-color="gray"/></radialGradient><path fill="url(#a)" stroke="#000" stroke-miterlimit="10" d="M-.5.5h1000v400H-.5z"/><g fill="gray"><path d="M578.483 148.943a3.33 3.33 0 0 0-3.33 3.33v122.88H424.847V124.846h153.637a3.33 3.33 0 0 0 0-6.66H421.517a3.33 3.33 0 0 0-3.33 3.33v156.967a3.33 3.33 0 0 0 3.33 3.33h156.967a3.33 3.33 0 0 0 3.33-3.33v-126.21a3.331 3.331 0 0 0-3.331-3.33z"/><path d="M439.896 136.566a3.33 3.33 0 0 0-3.329 3.33v96.485a3.329 3.329 0 0 0 3.329 3.328h120.206a3.33 3.33 0 0 0 3.33-3.328v-96.485a3.33 3.33 0 0 0-3.33-3.33H439.896zm3.331 6.66h113.547v84.904l-34.801-34.801a3.327 3.327 0 0 0-4.708 0l-9.613 9.613-17.157-17.157a3.329 3.329 0 0 0-4.709 0l-33.02 33.021a3.329 3.329 0 1 0 4.708 4.709l30.666-30.667 17.157 17.157a3.329 3.329 0 0 0 4.709 0l9.612-9.612 32.659 32.66h-109.05v-89.827z"/></g><g><text transform="translate(392.482 350.694)" fill="#666" font-family="'MyriadHebrew-Regular'" font-size="48">1000 x 400px</text></g></svg>