<svg xmlns="http://www.w3.org/2000/svg" width="1000" height="400" viewBox="0 0 1000 400"><linearGradient id="a" gradientUnits="userSpaceOnUse" x1="711.648" y1="-166.746" x2="288.442" y2="566.267" gradientTransform="matrix(1 0 0 -1 -.045 399.76)"><stop offset="0" stop-color="#e6e6e6"/><stop offset=".375" stop-color="#e3e3e3"/><stop offset=".598" stop-color="#dbdbdb"/><stop offset=".78" stop-color="#cdcdcd"/><stop offset=".94" stop-color="#b9b9b9"/><stop offset=".979" stop-color="#b3b3b3"/></linearGradient><path fill="url(#a)" d="M0 0h1000v400H0z"/><g><g fill="gray"><path d="M576.563 113.778a3.33 3.33 0 0 0-3.33 3.33v122.88H422.927V89.681h153.637a3.33 3.33 0 1 0 0-6.659H419.597a3.33 3.33 0 0 0-3.33 3.33v156.967a3.33 3.33 0 0 0 3.33 3.33h156.967a3.33 3.33 0 0 0 3.33-3.33v-126.21a3.331 3.331 0 0 0-3.331-3.331z"/><path d="M437.977 101.401a3.33 3.33 0 0 0-3.329 3.33v96.485a3.329 3.329 0 0 0 3.329 3.328h120.206a3.33 3.33 0 0 0 3.33-3.328v-96.485a3.33 3.33 0 0 0-3.33-3.33H437.977zm3.33 6.661h113.547v84.903l-34.801-34.801a3.327 3.327 0 0 0-4.708 0l-9.613 9.612-17.157-17.157a3.329 3.329 0 0 0-4.709 0l-33.02 33.021a3.329 3.329 0 1 0 4.708 4.709l30.666-30.666 17.157 17.156a3.329 3.329 0 0 0 4.709 0l9.612-9.611 32.659 32.659h-109.05v-89.825z"/></g><g fill="#666"><path d="M376.271 306.754v1.775h-17.52v-1.775h7.8v-27.553c0-.543.024-1.119.072-1.727l-7.488 6.646c-.224.193-.448.266-.672.217a.952.952 0 0 1-.528-.289l-.696-.959 9.816-8.664h1.8v32.328h7.416zM406.27 291.537c0 2.977-.32 5.553-.96 7.729-.64 2.176-1.512 3.977-2.616 5.4s-2.396 2.484-3.876 3.18c-1.48.695-3.06 1.045-4.74 1.045s-3.256-.35-4.728-1.045-2.76-1.756-3.864-3.18-1.972-3.225-2.604-5.4c-.632-2.176-.948-4.752-.948-7.729 0-2.975.316-5.551.948-7.727.632-2.176 1.5-3.977 2.604-5.4s2.392-2.484 3.864-3.18c1.472-.697 3.048-1.045 4.728-1.045s3.26.348 4.74 1.045c1.479.695 2.772 1.756 3.876 3.18s1.976 3.225 2.616 5.4c.639 2.176.96 4.753.96 7.727zm-2.4 0c0-2.752-.264-5.104-.792-7.055-.528-1.953-1.236-3.549-2.124-4.789s-1.928-2.148-3.12-2.723a8.528 8.528 0 0 0-3.756-.865c-1.312 0-2.56.289-3.744.865-1.184.574-2.224 1.482-3.12 2.723-.896 1.24-1.608 2.836-2.136 4.789-.528 1.951-.792 4.303-.792 7.055 0 2.77.264 5.125.792 7.068s1.24 3.537 2.136 4.775c.896 1.24 1.936 2.145 3.12 2.713s2.432.852 3.744.852c1.312 0 2.564-.283 3.756-.852s2.232-1.473 3.12-2.713c.888-1.238 1.596-2.832 2.124-4.775s.792-4.298.792-7.068zM434.109 291.537c0 2.977-.32 5.553-.96 7.729-.64 2.176-1.512 3.977-2.616 5.4s-2.396 2.484-3.876 3.18c-1.48.695-3.06 1.045-4.74 1.045s-3.256-.35-4.728-1.045-2.76-1.756-3.864-3.18-1.972-3.225-2.604-5.4c-.632-2.176-.948-4.752-.948-7.729 0-2.975.316-5.551.948-7.727.632-2.176 1.5-3.977 2.604-5.4s2.392-2.484 3.864-3.18c1.472-.697 3.048-1.045 4.728-1.045s3.26.348 4.74 1.045c1.479.695 2.772 1.756 3.876 3.18s1.976 3.225 2.616 5.4c.64 2.176.96 4.753.96 7.727zm-2.4 0c0-2.752-.264-5.104-.792-7.055-.528-1.953-1.236-3.549-2.124-4.789s-1.928-2.148-3.12-2.723a8.528 8.528 0 0 0-3.756-.865c-1.312 0-2.56.289-3.744.865-1.184.574-2.224 1.482-3.12 2.723-.896 1.24-1.608 2.836-2.136 4.789-.528 1.951-.792 4.303-.792 7.055 0 2.77.264 5.125.792 7.068s1.24 3.537 2.136 4.775c.896 1.24 1.936 2.145 3.12 2.713s2.432.852 3.744.852c1.312 0 2.564-.283 3.756-.852s2.232-1.473 3.12-2.713c.888-1.238 1.596-2.832 2.124-4.775s.792-4.298.792-7.068zM461.948 291.537c0 2.977-.32 5.553-.96 7.729-.64 2.176-1.512 3.977-2.616 5.4s-2.396 2.484-3.876 3.18c-1.48.695-3.06 1.045-4.74 1.045s-3.256-.35-4.728-1.045-2.76-1.756-3.864-3.18-1.972-3.225-2.604-5.4c-.632-2.176-.948-4.752-.948-7.729 0-2.975.316-5.551.948-7.727.632-2.176 1.5-3.977 2.604-5.4s2.392-2.484 3.864-3.18c1.472-.697 3.048-1.045 4.728-1.045s3.26.348 4.74 1.045c1.479.695 2.772 1.756 3.876 3.18s1.976 3.225 2.616 5.4c.64 2.176.96 4.753.96 7.727zm-2.4 0c0-2.752-.264-5.104-.792-7.055-.528-1.953-1.236-3.549-2.124-4.789s-1.928-2.148-3.12-2.723a8.528 8.528 0 0 0-3.756-.865c-1.312 0-2.56.289-3.744.865-1.184.574-2.224 1.482-3.12 2.723-.896 1.24-1.608 2.836-2.136 4.789-.528 1.951-.792 4.303-.792 7.055 0 2.77.264 5.125.792 7.068s1.24 3.537 2.136 4.775c.896 1.24 1.936 2.145 3.12 2.713s2.432.852 3.744.852c1.312 0 2.564-.283 3.756-.852s2.232-1.473 3.12-2.713c.888-1.238 1.596-2.832 2.124-4.775s.792-4.298.792-7.068zM498.188 308.529h-2.184c-.224 0-.4-.068-.528-.203a2.635 2.635 0 0 1-.312-.396l-7.248-10.584a2.576 2.576 0 0 1-.36.84l-6.912 9.744c-.112.145-.228.279-.348.408s-.276.191-.468.191h-2.064l8.688-12.215-8.352-11.664h2.184c.224 0 .392.047.504.143.112.098.208.209.288.336l7.008 10.105c.032-.129.084-.264.156-.408.072-.145.148-.289.228-.432l6.552-9.24c.096-.145.2-.264.312-.361a.64.64 0 0 1 .432-.143h2.088l-8.328 11.52 8.664 12.359zM538.58 296.961v1.248a.568.568 0 0 1-.156.42c-.104.105-.269.156-.492.156h-5.568v9.744h-2.016v-9.744h-16.057c-.24 0-.424-.051-.552-.156a.785.785 0 0 1-.264-.42l-.216-1.127 17.063-22.561h2.04v22.439h6.218zm-8.232 0v-17.783c0-.271.012-.568.035-.889.024-.318.053-.646.084-.982l-14.688 19.654h14.569zM566.203 291.537c0 2.977-.32 5.553-.961 7.729-.64 2.176-1.512 3.977-2.615 5.4s-2.396 2.484-3.876 3.18c-1.48.695-3.06 1.045-4.74 1.045s-3.257-.35-4.728-1.045c-1.473-.695-2.76-1.756-3.864-3.18s-1.972-3.225-2.604-5.4c-.632-2.176-.947-4.752-.947-7.729 0-2.975.315-5.551.947-7.727.633-2.176 1.5-3.977 2.604-5.4s2.392-2.484 3.864-3.18c1.471-.697 3.047-1.045 4.728-1.045s3.26.348 4.74 1.045c1.479.695 2.772 1.756 3.876 3.18s1.976 3.225 2.615 5.4c.641 2.176.961 4.753.961 7.727zm-2.4 0c0-2.752-.264-5.104-.792-7.055-.528-1.953-1.235-3.549-2.124-4.789s-1.928-2.148-3.12-2.723c-1.192-.576-2.444-.865-3.756-.865s-2.56.289-3.744.865c-1.185.574-2.224 1.482-3.12 2.723s-1.607 2.836-2.136 4.789c-.528 1.951-.792 4.303-.792 7.055 0 2.77.264 5.125.792 7.068s1.239 3.537 2.136 4.775c.896 1.24 1.936 2.145 3.12 2.713s2.433.852 3.744.852 2.563-.283 3.756-.852 2.231-1.473 3.12-2.713c.889-1.238 1.596-2.832 2.124-4.775s.792-4.298.792-7.068zM594.042 291.537c0 2.977-.32 5.553-.96 7.729-.641 2.176-1.512 3.977-2.615 5.4-1.104 1.424-2.396 2.484-3.877 3.18s-3.06 1.045-4.74 1.045c-1.68 0-3.256-.35-4.728-1.045s-2.76-1.756-3.864-3.18c-1.104-1.424-1.972-3.225-2.604-5.4-.633-2.176-.948-4.752-.948-7.729 0-2.975.315-5.551.948-7.727.632-2.176 1.5-3.977 2.604-5.4 1.104-1.424 2.393-2.484 3.864-3.18a10.908 10.908 0 0 1 4.728-1.045c1.681 0 3.26.348 4.74 1.045 1.48.695 2.772 1.756 3.877 3.18 1.104 1.424 1.975 3.225 2.615 5.4.64 2.176.96 4.753.96 7.727zm-2.399 0c0-2.752-.265-5.104-.793-7.055-.527-1.953-1.235-3.549-2.123-4.789-.889-1.24-1.929-2.148-3.121-2.723a8.522 8.522 0 0 0-3.756-.865c-1.312 0-2.56.289-3.744.865-1.184.574-2.224 1.482-3.119 2.723-.896 1.24-1.608 2.836-2.137 4.789-.527 1.951-.791 4.303-.791 7.055 0 2.77.264 5.125.791 7.068.528 1.943 1.24 3.537 2.137 4.775.896 1.24 1.936 2.145 3.119 2.713a8.556 8.556 0 0 0 3.744.852 8.61 8.61 0 0 0 3.756-.852c1.192-.568 2.232-1.473 3.121-2.713.888-1.238 1.596-2.832 2.123-4.775.528-1.943.793-4.298.793-7.068zM601.938 288.945c1.057-1.439 2.292-2.584 3.708-3.432s3.004-1.271 4.765-1.271c2.928 0 5.211 1.016 6.852 3.047 1.64 2.033 2.46 5.08 2.46 9.145 0 1.744-.228 3.373-.685 4.885-.455 1.512-1.127 2.824-2.016 3.936s-1.977 1.988-3.264 2.627c-1.289.641-2.772.961-4.452.961-1.616 0-3.017-.297-4.2-.889s-2.208-1.463-3.072-2.615v11.641h-2.304v-32.33h1.272c.399 0 .631.199.695.6l.241 3.695zm.095 14.377a10.18 10.18 0 0 0 1.452 1.74 7.36 7.36 0 0 0 1.597 1.15c.559.297 1.155.51 1.787.637.633.129 1.301.191 2.004.191 1.408 0 2.641-.256 3.696-.768s1.94-1.236 2.652-2.172 1.247-2.055 1.608-3.359c.359-1.305.539-2.74.539-4.309 0-3.553-.656-6.164-1.968-7.836s-3.192-2.508-5.64-2.508c-1.584 0-3.017.408-4.297 1.225-1.279.814-2.424 1.951-3.432 3.408v12.601zM642.762 308.529h-2.184c-.225 0-.4-.068-.528-.203a2.635 2.635 0 0 1-.312-.396l-7.248-10.584a2.598 2.598 0 0 1-.36.84l-6.912 9.744a5.576 5.576 0 0 1-.349.408.604.604 0 0 1-.467.191h-2.064l8.688-12.215-8.352-11.664h2.184c.225 0 .393.047.504.143.112.098.208.209.289.336l7.008 10.105c.031-.129.084-.264.155-.408.072-.145.147-.289.228-.432l6.553-9.24c.096-.145.199-.264.313-.361a.638.638 0 0 1 .432-.143h2.088l-8.328 11.52 8.662 12.359z"/></g></g></svg>