<svg xmlns="http://www.w3.org/2000/svg" width="250" height="212" viewBox="0 0 250 212"><path fill="#1C75BC" d="M.146 212s-1.792-10.753 7.168-14.935c8.961-4.182 61.531-29.868 70.492-34.051 8.96-4.182 6.571-15.531 7.168-17.324.598-1.792 5.974 0 5.974 0l2.39-21.506s-12.496-14.258-10.647-26.891c0 0-5.854 1.233-8.935-13.558-3.082-14.79-.308-17.255 1.848-15.714 0 0-5.358-8.678-4.005-26.808C73.14 20.57 91.509-.075 125.001-.075c33.489 0 51.859 20.645 53.398 41.289 1.354 18.129-4.005 26.808-4.005 26.808 2.157-1.541 4.931.924 1.849 15.714-3.081 14.791-8.937 13.558-8.937 13.558 1.85 12.633-10.646 26.891-10.646 26.891l2.391 21.506s5.375-1.792 5.974 0c.598 1.793-1.793 13.143 7.169 17.324 8.96 4.183 61.53 29.869 70.49 34.051 8.962 4.182 7.17 14.935 7.17 14.935H.146z"/></svg>