<svg xmlns="http://www.w3.org/2000/svg" width="250" height="212" viewBox="0 0 250 212"><path fill="#1C75BC" d="M125 15.635c0-8.898 7.213-16.111 16.112-16.111 8.897 0 16.111 7.213 16.111 16.111 0 1.403-.181 2.765-.518 4.063a16.051 16.051 0 0 1 10.692-4.063c8.897 0 16.111 7.214 16.111 16.112 0 3.331-1.012 6.426-2.744 8.995 5.845 2.418 9.958 8.174 9.958 14.892 0 5.077-2.352 9.604-6.021 12.557 3.67 2.953 6.021 7.48 6.021 12.557 0 7.244-4.78 13.369-11.356 15.398.627 1.72.969 3.577.969 5.513 0 8.898-7.214 16.112-16.111 16.112-.653 0-1.297-.043-1.929-.119-2.936 7.279-7.98 13.039-7.98 13.039l2.214 19.912s4.978-1.66 5.531 0c.553 1.66-1.66 12.169 6.637 16.041s56.973 27.656 65.271 31.528c8.296 3.872 6.638 13.829 6.638 13.829H9.396s-1.66-9.957 6.638-13.829c8.296-3.872 56.972-27.656 65.269-31.528 8.297-3.872 6.083-14.381 6.637-16.041s5.531 0 5.531 0l2.213-19.912s-5.044-5.76-7.978-13.039c-.634.076-1.276.119-1.93.119-8.898 0-16.111-7.214-16.111-16.112 0-1.936.343-3.793.968-5.513-6.576-2.029-11.356-8.154-11.356-15.398 0-5.077 2.351-9.604 6.021-12.557-3.67-2.953-6.021-7.479-6.021-12.557 0-6.718 4.112-12.474 9.957-14.892a16.036 16.036 0 0 1-2.743-8.995c0-8.898 7.214-16.112 16.112-16.112 4.104 0 7.847 1.537 10.691 4.063a16.146 16.146 0 0 1-.517-4.063c0-8.898 7.213-16.111 16.112-16.111S125 6.737 125 15.635z"/></svg>