<svg xmlns="http://www.w3.org/2000/svg" width="250" height="212" viewBox="0 0 250 212"><path fill="#1C75BC" d="M249.809 212s1.793-10.749-7.166-14.93c-8.956-4.18-61.508-29.857-70.467-34.038-2.065-10.542-6.567-15.525-7.165-17.318-.598-1.791-5.972 0-5.972 0l-2.389-21.499s4.122 5.783 6.911 58.475c-1.565-14.724 13.366-110.95 12.805-129.114C175.551 27.174 158.479.001 125 .001c-33.48 0-50.551 27.173-51.366 53.575-.56 18.164 14.371 114.39 12.805 129.114 2.789-52.691 6.911-58.475 6.911-58.475l-2.388 21.499s-5.375-1.791-5.972 0c-.598 1.793-5.1 6.776-7.166 17.318-8.958 4.181-61.509 29.858-70.467 34.038C-1.6 201.251.192 212 .192 212h249.617z"/></svg>