<svg xmlns="http://www.w3.org/2000/svg" width="250" height="212" viewBox="0 0 250 212"><path fill="#1C75BC" d="M.153 212s-1.792-10.753 7.168-14.934c8.96-4.184 61.53-29.869 70.492-34.053 2.067-10.546 6.571-15.531 7.168-17.322.597-1.793 5.974 0 5.974 0l2.389-21.506s-26.193 3.924-24.345-8.709c0 0 7.844-16.951 4.763-31.741-3.082-14.79-3.51-24.393-2.157-42.522 1.541-20.645 19.91-41.29 53.401-41.29s51.86 20.645 53.401 41.29c1.353 18.129.925 27.732-2.157 42.522-3.081 14.791 4.764 31.741 4.764 31.741 1.848 12.633-24.346 8.709-24.346 8.709l2.389 21.506s5.377-1.793 5.975 0c.599 1.791 5.103 6.776 7.169 17.322 8.961 4.184 61.53 29.869 70.491 34.053 8.961 4.181 7.168 14.934 7.168 14.934H.153z"/></svg>